<svg xmlns="http://www.w3.org/2000/svg" width="145.85" height="145.853" viewBox="0 0 145.85 145.853">
    <defs>
        <style>
            .cls-2{fill:#ff4040}
        </style>
    </defs>
    <g id="Hata-icon" transform="translate(-713 -404.06)">
        <g id="Group_257" transform="translate(713 404.06)">
            <g id="Group_252" opacity="0.304">
                <path id="Path_524" d="M367.336 222.294a72.926 72.926 0 1 1 72.928-72.925 73.007 73.007 0 0 1-72.928 72.925zm0-144.171a71.245 71.245 0 1 0 71.249 71.246 71.325 71.325 0 0 0-71.249-71.246z" class="cls-2" transform="translate(-294.413 -76.441)"/>
            </g>
            <g id="Group_253" opacity="0.498" transform="translate(10.406 10.41)">
                <path id="Path_525" d="M360.7 205.251a62.517 62.517 0 1 1 62.518-62.516 62.586 62.586 0 0 1-62.518 62.516zm0-120.9a58.388 58.388 0 1 0 58.389 58.389A58.452 58.452 0 0 0 360.7 84.347z" class="cls-2" transform="translate(-298.189 -80.218)"/>
            </g>
            <g id="Group_255" transform="translate(47.609 48.173)">
                <path id="Path_527" d="M319.58 147.481a4.741 4.741 0 0 1-3.352-8.092l40.861-40.858a4.74 4.74 0 1 1 6.7 6.7l-40.857 40.859a4.715 4.715 0 0 1-3.352 1.391z" class="cls-2" transform="translate(-314.84 -97.141)"/>
            </g>
            <g id="Group_256" transform="translate(47.609 48.173)">
                <path id="Path_528" d="M360.441 147.481a4.719 4.719 0 0 1-3.352-1.39l-40.861-40.858a4.74 4.74 0 0 1 6.7-6.7l40.861 40.858a4.741 4.741 0 0 1-3.352 8.092z" class="cls-2" transform="translate(-314.84 -97.141)"/>
            </g>
        </g>
        <g id="Group_245" transform="translate(735.711 425.997)">
            <path id="Path_518" d="M229.8 186.842a50.93 50.93 0 1 1 50.932-50.93 50.987 50.987 0 0 1-50.932 50.93zm0-94.433a43.5 43.5 0 1 0 43.5 43.5 43.551 43.551 0 0 0-43.5-43.5z" class="cls-2" transform="translate(-178.87 -84.982)"/>
        </g>
    </g>
</svg>
