<svg xmlns="http://www.w3.org/2000/svg" width="145" height="145.002" viewBox="0 0 145 145.002">
    <defs>
        <style>
            .cls-2{fill:#18beb1}
        </style>
    </defs>
    <g id="Success_icon" transform="translate(-170.33 -76.441)">
        <g id="Group_243" opacity="0.298" transform="translate(170.33 76.441)">
            <path id="Path_516" d="M242.828 221.443a72.5 72.5 0 1 1 72.5-72.5 72.581 72.581 0 0 1-72.5 72.5zm0-143.331a70.829 70.829 0 1 0 70.833 70.831 70.909 70.909 0 0 0-70.833-70.83z" class="cls-2" transform="translate(-170.33 -76.441)"/>
        </g>
        <g id="Group_244" opacity="0.504" transform="translate(179.999 86.112)">
            <path id="Path_517" d="M236.935 205.878a62.83 62.83 0 1 1 62.831-62.829 62.9 62.9 0 0 1-62.831 62.829zm0-121.51a58.68 58.68 0 1 0 58.682 58.682 58.745 58.745 0 0 0-58.682-58.682z" class="cls-2" transform="translate(-174.106 -80.218)"/>
        </g>
        <g id="Group_245" transform="translate(192.197 98.311)">
            <path id="Path_518" d="M229.5 186.248a50.633 50.633 0 1 1 50.635-50.633 50.69 50.69 0 0 1-50.635 50.633zm0-93.882a43.248 43.248 0 1 0 43.247 43.249A43.3 43.3 0 0 0 229.5 92.366z" class="cls-2" transform="translate(-178.87 -84.982)"/>
        </g>
        <g id="Group_246" transform="translate(216.347 126.226)">
            <path id="Path_519" d="M212.382 146.769a4.347 4.347 0 0 1-3.08-1.278l-18.467-18.467a4.354 4.354 0 0 1 6.158-6.158l14.8 14.8 25.741-36.659a4.356 4.356 0 0 1 7.131 5.006l-28.721 40.9a4.357 4.357 0 0 1-3.188 1.836c-.123.013-.248.02-.374.02z" class="cls-2" transform="translate(-189.558 -97.154)"/>
        </g>
    </g>
</svg>
