<svg xmlns="http://www.w3.org/2000/svg" width="210.655" height="34.29" viewBox="0 0 210.655 34.29">
    <defs>
        <style>
            .cls-1{fill:#4a4f62}.cls-2{fill:#84899d}
        </style>
    </defs>
    <g id="Carsi_Logo_footer" transform="translate(-160.394 -583.481)">
        <g id="Group_1" transform="translate(160.394 583.481)">
            <path id="Path_1" d="M211.032 594.163c0-6.275-4.4-10.492-10.937-10.492h-14.261V617.4h5.6v-12.75h5.707l7.791 12.6.1.154h6.516l-8.533-13.326c3.803-.678 8.017-3.627 8.017-9.915zm-5.75 0c0 3.231-2.4 5.487-5.832 5.487h-8.016v-10.974h8.016c3.435 0 5.832 2.256 5.832 5.487z" class="cls-1" transform="translate(-120.701 -583.184)"/>
            <path id="Rectangle_1" d="M0 0H5.206V33.641H0z" class="cls-1" transform="translate(126.35 .628)"/>
            <path id="Path_2" d="M186.818 583.481L172.064 617.7h5.686l4.845-10.751 4.223-9.713 4.123 9.5 2.515 5.6 2.328 5.367h5.831l-14.5-33.54z" class="cls-1" transform="translate(-142.186 -583.481)"/>
            <path id="Path_3" d="M178.306 612.718a5.8 5.8 0 0 1 .085-.847 11.6 11.6 0 0 1-1.2.1 11.425 11.425 0 1 1 0-22.85 10.884 10.884 0 0 1 7.184 2.47l.315.259 2.366-4.941-.22-.156a16.463 16.463 0 0 0-9.645-3.026 16.8 16.8 0 1 0 0 33.593 16.631 16.631 0 0 0 3.121-.325 5.59 5.59 0 0 1-2.006-4.277z" class="cls-1" transform="translate(-160.394 -583.098)"/>
            <path id="Path_4" d="M210.586 597.528c-3.615-.917-7.03-1.782-7.03-4.383 0-2.581 2.448-4.6 5.571-4.6a12.335 12.335 0 0 1 8.8 4.071l.253.269 3.126-3.986-.2-.2a16 16 0 0 0-11.608-4.969c-6.511 0-11.416 4.191-11.416 9.749 0 6.557 5.8 8.075 10.912 9.414l.169.044c3.922 1.016 7.312 1.892 7.312 4.946 0 2.164-1.71 4.69-6.531 4.69a12.043 12.043 0 0 1-3.034-.4c0 .077.023.151.023.228 0 .051-.015.1-.018.148s.018.113.018.172a5.6 5.6 0 0 1-1.787 4.091 18.679 18.679 0 0 0 4.611.579c8.953 0 12.143-5.131 12.143-9.931 0-6.926-6.271-8.593-11.314-9.932z" class="cls-1" transform="translate(-101.588 -583.098)"/>
        </g>
        <circle id="Ellipse_1" cx="3.068" cy="3.068" r="3.068" class="cls-2" transform="translate(257.045 610.033)"/>
        <circle id="Ellipse_2" cx="3.068" cy="3.068" r="3.068" class="cls-2" transform="translate(180.865 610.033)"/>
        <g id="Group_2" transform="translate(312.801 584.062)">
            <path id="Path_5" d="M219.922 589.143v19.713h5.041v-14.52h17.647v-5.193h-22.688z" class="cls-1" transform="translate(-219.922 -575.228)"/>
            <path id="Path_6" d="M225.821 588.9h17.142v-5.193h-23.041v5.193z" class="cls-1" transform="translate(-219.922 -583.708)"/>
        </g>
        <path id="Path_7" d="M254.962 583.708l-8.79 8.79-8.79-8.79h-7.2l15.99 15.992 15.99-15.989z" class="cls-1" transform="translate(108.888 .354)"/>
        <path id="Path_8" d="M237.382 606.587l8.79-8.79 8.79 8.79h7.2l-15.99-15.987-15.99 15.989z" class="cls-2" transform="translate(108.888 11.104)"/>
    </g>
</svg>
