<svg xmlns="http://www.w3.org/2000/svg" width="70" height="70" viewBox="0 0 70 70">
    <defs>
        <style>
            .cls-2{fill:none;stroke:#344154;stroke-linecap:round;stroke-linejoin:round;stroke-width:1.5px}
        </style>
    </defs>
    <g id="icon" transform="translate(-821.659 -1533.911)">
        <g id="icon-2" transform="translate(-4.171 -2.394)">
            <path id="Path_13116" d="M48.076 77.152h5.938a2.619 2.619 0 0 0 2.131-2.712V72.5s5.206 4.4 8.868 7.273c-3.662 2.872-8.868 7.273-8.868 7.273v-1.94a2.619 2.619 0 0 0-2.131-2.712H42.083a6.1 6.1 0 0 0-6.105 6.106v5a2.62 2.62 0 0 0 2.712 2.131h1.94s-4.4 5.206-7.273 8.868c-2.872-3.662-7.273-8.868-7.273-8.868h1.94a2.619 2.619 0 0 0 2.712-2.131v-5a6.1 6.1 0 0 0-6.1-6.105H12.5a2.619 2.619 0 0 0-2.131 2.712v1.94s-5.206-4.4-8.868-7.273C5.162 76.9 10.368 72.5 10.368 72.5v1.939a2.619 2.619 0 0 0 2.132 2.713h5.938" class="cls-2" transform="translate(827.8 1500.725)"/>
            <path id="Path_13117" d="M55.65 46.576a9.651 9.651 0 0 0 8.75-5.417 10.539 10.539 0 0 0 1.111-4.281 16.552 16.552 0 0 0-3.354-9.871l-7.189-11.634H42.907l-7.344 11.634a16.552 16.552 0 0 0-3.354 9.871v.1a9.746 9.746 0 0 0 9.779 9.595z" class="cls-2" transform="translate(812.195 1529.755)"/>
            <path id="Path_13118" d="M61.413 8.323L65.873 4l-1.6-1.6a3.072 3.072 0 0 0-4.345 0l-1.293 1.292-.569-.568a3.8 3.8 0 0 0-5.367 0l-.568.568L50.839 2.4a3.072 3.072 0 0 0-4.345 0L44.893 4l4.46 4.323" class="cls-2" transform="translate(805.749 1536.805)"/>
            <path id="Path_13119" d="M60.152 43.891a2.985 2.985 0 1 0 5.97 0c0-1.649-1.224-2.41-2.985-2.985-1.567-.512-2.985-1.336-2.985-2.985a2.985 2.985 0 1 1 5.97 0" class="cls-2" transform="translate(797.995 1519.814)"/>
            <path id="Line_186" d="M0 0L0 1.684" class="cls-2" transform="translate(861.132 1553.086)"/>
            <path id="Line_187" d="M0 0L0 1.684" class="cls-2" transform="translate(861.132 1566.69)"/>
            <path id="Path_13120" fill="#18beb1" d="M83.886 36.405l-.075-.1-3.649-5.9c.925 3.868 2.622 7.709 2.669 11.692a14.415 14.415 0 0 1-2.823 8.7c-.121.163-.256.316-.384.473h.121a6.71 6.71 0 0 0 6.087-3.73 7.782 7.782 0 0 0 .826-3.024 13.674 13.674 0 0 0-2.771-8.1" transform="translate(788.1 1522.119)"/>
        </g>
    </g>
</svg>
