<svg xmlns="http://www.w3.org/2000/svg" width="100" height="100" viewBox="0 0 100 100">
    <defs>
        <clipPath id="clip-path">
            <path id="Rectangle_1785" d="M0 0H69.688V66.598H0z" class="cls-1"/>
        </clipPath>
        <style>
            .cls-1{fill:#fff}
        </style>
    </defs>
    <g id="icon" transform="translate(-505 -943)">
        <g id="Group_8387" transform="translate(520 960)">
            <g id="Group_8386" clip-path="url(#clip-path)">
                <path id="Path_13067" d="M65.895 27.161a10.173 10.173 0 0 1-2.587-3.084 9.729 9.729 0 0 1 .244-4.224 9.034 9.034 0 0 0-.524-7 9.261 9.261 0 0 0-6.537-2.714 10.387 10.387 0 0 1-4.07-1.048A9.95 9.95 0 0 1 50.2 5.576C49.151 3.356 47.98.889 45.636.118a8.881 8.881 0 0 0-6.722 1.665 10.281 10.281 0 0 1-4.039 1.573 10.3 10.3 0 0 1-4.039-1.573A8.883 8.883 0 0 0 24.052.118c-2.375.771-3.547 3.082-4.595 5.427a10.006 10.006 0 0 1-2.189 3.515 10.4 10.4 0 0 1-4.07 1.079 9.253 9.253 0 0 0-6.538 2.683 8.985 8.985 0 0 0-.524 6.969 10.334 10.334 0 0 1 .247 4.224 10.183 10.183 0 0 1-2.59 3.085A9.246 9.246 0 0 0 0 33.266a9.239 9.239 0 0 0 3.793 6.167 10.22 10.22 0 0 1 2.59 3.084 10.373 10.373 0 0 1-.247 4.255 8.984 8.984 0 0 0 .524 6.969 9.239 9.239 0 0 0 6.54 2.651 10.48 10.48 0 0 1 4.07 1.048 10.014 10.014 0 0 1 2.22 3.518c1.048 2.189 2.22 4.653 4.594 5.424a4.437 4.437 0 0 0 1.416.218 11.983 11.983 0 0 0 5.3-1.881 10.342 10.342 0 0 1 4.039-1.57 10.342 10.342 0 0 1 4.039 1.57 8.868 8.868 0 0 0 6.722 1.665c2.374-.771 3.546-3.235 4.6-5.424a9.962 9.962 0 0 1 2.217-3.518 10.494 10.494 0 0 1 4.07-1.048 9.24 9.24 0 0 0 6.537-2.683 8.957 8.957 0 0 0 .524-6.969 9.869 9.869 0 0 1-.244-4.255 10.173 10.173 0 0 1 2.591-3.087 9.257 9.257 0 0 0 3.793-6.167 9.252 9.252 0 0 0-3.793-6.075m-2.128 9.991a11.775 11.775 0 0 0-3.392 4.409 12.1 12.1 0 0 0 0 5.735c.339 1.853.678 3.762 0 4.625s-2.587 1.172-4.44 1.449a11.918 11.918 0 0 0-5.489 1.6 12.081 12.081 0 0 0-3.084 4.656c-.833 1.73-1.665 3.484-2.775 3.854s-2.682-.577-4.287-1.442a12.378 12.378 0 0 0-5.52-1.943 12.378 12.378 0 0 0-5.52 1.943c-1.6.866-3.3 1.761-4.286 1.449s-1.94-2.124-2.774-3.854a12.046 12.046 0 0 0-3.084-4.656 11.911 11.911 0 0 0-5.52-1.665c-1.85-.278-3.793-.524-4.44-1.446s-.308-2.778 0-4.625a12.118 12.118 0 0 0 0-5.738 11.806 11.806 0 0 0-3.392-4.409c-1.385-1.327-2.835-2.684-2.835-3.891s1.449-2.559 2.837-3.885a11.782 11.782 0 0 0 3.392-4.405 12.049 12.049 0 0 0 .031-5.52c-.339-1.85-.678-3.762 0-4.625s2.528-1.326 4.409-1.542a11.871 11.871 0 0 0 5.489-1.6 12.031 12.031 0 0 0 3.176-4.564c.837-1.73 1.665-3.487 2.775-3.859h.462a10.136 10.136 0 0 1 3.824 1.511 12.3 12.3 0 0 0 5.52 1.943 12.291 12.291 0 0 0 5.52-1.943c1.6-.863 3.269-1.788 4.286-1.449s1.943 2.128 2.775 3.854a12 12 0 0 0 3.084 4.656 11.892 11.892 0 0 0 5.581 1.449c1.85.278 3.793.524 4.44 1.449s.308 2.775 0 4.625a12.105 12.105 0 0 0 0 5.735 11.782 11.782 0 0 0 3.392 4.409c1.388 1.326 2.837 2.683 2.837 3.885s-1.6 2.5-2.991 3.824" class="cls-1" transform="translate(0 -.002)"/>
                <path id="Path_13068" d="M37.2 7.662l-7.675 6.506-5.58-6.351a1.6 1.6 0 0 0-1.172-.524 1.48 1.48 0 0 0-1.141.524l-5.612 6.352-7.678-6.507a1.542 1.542 0 0 0-2.528 1.419l2.223 13.352a7.673 7.673 0 0 0 7.613 6.445H29.9a7.674 7.674 0 0 0 7.585-6.445l2.248-13.352a1.539 1.539 0 0 0-2.495-1.418z" class="cls-1" transform="translate(12.071 15.182)"/>
            </g>
        </g>
    </g>
</svg>
