<svg xmlns="http://www.w3.org/2000/svg" width="100" height="100" viewBox="0 0 100 100">
    <defs>
        <clipPath id="clip-path">
            <path id="Rectangle_1788" d="M0 0H61.194V78.771H0z" class="cls-1"/>
        </clipPath>
        <style>
            .cls-1{fill:#fff}
        </style>
    </defs>
    <g id="icon" transform="translate(-505 -943)">
        <g id="Group_8392" transform="translate(524.106 953.93)">
            <g id="Group_8391" clip-path="url(#clip-path)">
                <path id="Path_13077" d="M17.846 33.83a16.909 16.909 0 1 1 11.963-4.953 16.857 16.857 0 0 1-11.963 4.953m0-30.891A14 14 0 0 0 3.87 16.915a13.9 13.9 0 0 0 4.1 9.89 14.3 14.3 0 0 0 19.751 0 13.983 13.983 0 0 0-9.875-23.866" class="cls-1" transform="translate(12.751 .005)"/>
                <path id="Path_13078" d="M58.554 34.3H47.312v-1.47a16.709 16.709 0 1 0-33.419-.015v1.47L2.621 34.3a2.732 2.732 0 0 1-1.91-.823 2.53 2.53 0 0 1-.705-1.9l.044-2.16c.118-4.144.235-8.744 1.264-12.4a15.459 15.459 0 0 1 6.054-8.508c2.954-2.175 7.1-4.041 13.432-6.055a2.543 2.543 0 0 1 2.351.323 13.052 13.052 0 0 0 3.527 1.778 13.2 13.2 0 0 0 7.8 0 12.178 12.178 0 0 0 3.512-1.778 2.7 2.7 0 0 1 2.224-.377c6.76 1.881 11.331 3.953 14.417 6.51a16.084 16.084 0 0 1 5.614 9.729 63.424 63.424 0 0 1 .867 10.816c.015.676.029 1.337.059 2.028v.191a2.615 2.615 0 0 1-2.617 2.626m-.309-2.7v.073l1.47-.132zM21.476 5.187C15.745 7.142 11.762 8.935 9.1 10.875a12.41 12.41 0 0 0-4.95 6.951c-.941 3.307-1.043 7.7-1.146 11.58l-.059 1.955h8.068a19.634 19.634 0 0 1 39.165 0h8.068c-.044-.632-.044-1.234-.044-1.852a67.484 67.484 0 0 0-.823-10.287 13.224 13.224 0 0 0-4.6-8.053C49.987 8.876 45.769 7 39.435 5.217a11.721 11.721 0 0 1-4.056 2.131 15.862 15.862 0 0 1-9.567 0 15.549 15.549 0 0 1-4.335-2.16" class="cls-1" transform="translate(.009 31.44)"/>
                <path id="Path_13079" fill="#fff" fill-rule="evenodd" d="M14.5 3.384A13.407 13.407 0 1 0 27.91 16.8 13.405 13.405 0 0 0 14.5 3.384m7.463 10.156L14.7 21.849a1.347 1.347 0 0 1-1.018.462A1.4 1.4 0 0 1 12.8 22l-4.876-4.17a1.358 1.358 0 0 1 1.765-2.064l3.842 3.286 6.395-7.3a1.356 1.356 0 0 1 2.037 1.792" transform="translate(16.102 47.458)"/>
            </g>
        </g>
    </g>
</svg>
