<svg xmlns="http://www.w3.org/2000/svg" width="143.929" height="145.487" viewBox="0 0 143.929 145.487">
    <g>
        <path fill="#ffdc46" d="M119.4 221.928a72.744 72.744 0 1 1 71.166-87.869.837.837 0 0 1-.648.993.85.85 0 0 1-.993-.648 71.06 71.06 0 1 0-31.961 75.119.838.838 0 0 1 .887 1.421 72.552 72.552 0 0 1-38.451 10.984z" transform="translate(-46.653 -76.441)"/>
        <path fill="#ffbe00" d="M113.889 207.137a63.484 63.484 0 0 1-57.817-89.648 2.1 2.1 0 1 1 3.817 1.732 59.273 59.273 0 1 0 54-34.812 60.035 60.035 0 0 0-9.809.808 2.1 2.1 0 0 1-.687-4.135 63.463 63.463 0 1 1 10.5 126.054z" transform="translate(-46.653 -76.441) translate(5.507 5.507)"/>
        <path fill="#ffa000" d="M106.943 188.484a51.751 51.751 0 1 1 51.747-51.751 3.773 3.773 0 0 1-7.546 0 44.2 44.2 0 1 0-12.359 30.659 3.774 3.774 0 1 1 5.436 5.236 51.329 51.329 0 0 1-37.278 15.856z" transform="translate(-46.653 -76.441) translate(12.453 12.453)"/>
        <path fill="#ffa000" fill-rule="evenodd" d="M90.412 125.047a2.142 2.142 0 0 0-.125-.482 1.794 1.794 0 0 0-.477.234 6.228 6.228 0 0 1-3.525 1.718 9.538 9.538 0 0 0-3.412 1.037 13.9 13.9 0 0 0-5.292 5.223c-.293.479-.275.548.251.769 2.433 1.032 12.236 5.172 14.7 6.221.334.143.543.162.654-.261a15.108 15.108 0 0 0 .5-5.349 9.594 9.594 0 0 0-1.873-5.132 6.533 6.533 0 0 1-1.401-3.978zm.374-8.886a2.632 2.632 0 0 1 .307.531 10.477 10.477 0 0 1 .595 3.785 1.3 1.3 0 0 0 .147.411 1.32 1.32 0 0 0 .361-.187 9.751 9.751 0 0 1 2.814-2.048 2.273 2.273 0 0 1 .774-.3 10.347 10.347 0 0 0 6.27-2.9c.1-.086.189-.182.295-.283.071-.329-.155-.361-.383-.383-.821-.071-8.785-.757-11.944-1.027-.578-.049-.681.074-.4.575.363.627.778 1.219 1.164 1.826zm24.642-8.724L85.265 94.688a.887.887 0 0 0-1.163.469L82.859 98.1a.89.89 0 0 0 .472 1.163l2.2.932c-.116.28-.226.546-.344.809a19.673 19.673 0 0 0-1.689 6.529 15.413 15.413 0 0 0 2.448 10.134 3.557 3.557 0 0 1 .551 2.519 1.747 1.747 0 0 1-1.563 1.669 14.671 14.671 0 0 0-8.114 3.756 18.921 18.921 0 0 0-4.906 6.8c-.187.425-.366.855-.551 1.3l-2.2-.934a.888.888 0 0 0-1.16.472l-1.246 2.942a.892.892 0 0 0 .472 1.163L97.388 150.1a.886.886 0 0 0 1.16-.472l1.244-2.942a.887.887 0 0 0-.469-1.163l-2.451-1.035c.118-.28.231-.548.347-.816a18.914 18.914 0 0 0 1.349-4.351c.811-4.648.214-9-2.674-12.895a1.965 1.965 0 0 1-.312-1.16 3.173 3.173 0 0 1 2.146-2.315 15.039 15.039 0 0 0 8-3.918 19.17 19.17 0 0 0 4.8-6.836c.17-.4.342-.806.516-1.222l2.448 1.035a.888.888 0 0 0 1.163-.472l1.245-2.938a.89.89 0 0 0-.472-1.162zm-7.254 5.27a16.3 16.3 0 0 1-6.138 6.713 12.082 12.082 0 0 1-4.737 1.662 2.06 2.06 0 0 0-.745.253 5.5 5.5 0 0 0-2.751 3.053 3.27 3.27 0 0 0 .467 3.085 13.9 13.9 0 0 1 2.547 10.737 19.343 19.343 0 0 1-1.617 5.329 1.575 1.575 0 0 1-.116.2l-21.916-9.267c.337-.8.624-1.612 1.013-2.367a16.211 16.211 0 0 1 6.187-6.723 11.871 11.871 0 0 1 4.619-1.605 3.7 3.7 0 0 0 3.419-3.382 6.892 6.892 0 0 0-.263-2.8 1.25 1.25 0 0 0-.2-.391 13.5 13.5 0 0 1-2.556-9.326 18.741 18.741 0 0 1 1.765-6.6 1.21 1.21 0 0 1 .128-.2l21.906 9.264c-.338.8-.623 1.609-1.012 2.366z" transform="translate(-46.653 -76.441) translate(29.366 26.655)"/>
    </g>
</svg>
