<svg xmlns="http://www.w3.org/2000/svg" width="70" height="70" viewBox="0 0 70 70">
    <defs>
        <style>
            .cls-2{fill:none;stroke:#344154;stroke-linecap:round;stroke-linejoin:round;stroke-width:1.5px}.cls-3{fill:#18beb1}
        </style>
    </defs>
    <g id="icon" transform="translate(-821.659 -1533.911)">
        <g id="icon-2" transform="translate(705.659 1540.312)">
            <path id="Path_13093" d="M87.148 109.174v2.288a1.915 1.915 0 0 1-1.422 1.85 42.158 42.158 0 0 1-21.727 0 1.915 1.915 0 0 1-1.422-1.85v-2.288" class="cls-2" transform="translate(88.519 -58.08)"/>
            <path id="Path_13094" d="M87.148 94.158v2.288a1.915 1.915 0 0 1-1.421 1.854A42.159 42.159 0 0 1 64 98.3a1.915 1.915 0 0 1-1.422-1.851v-2.291" class="cls-2" transform="translate(88.519 -50.092)"/>
            <path id="Path_13095" d="M87.148 79.143v2.288a1.915 1.915 0 0 1-1.422 1.851 42.158 42.158 0 0 1-21.727 0 1.915 1.915 0 0 1-1.422-1.851v-2.288" class="cls-2" transform="translate(88.519 -42.104)"/>
            <ellipse id="Ellipse_312" cx="12.285" cy="3.479" class="cls-2" rx="12.285" ry="3.479" transform="translate(151.097 29.401)"/>
            <path id="Path_13096" d="M30.506 45.587a7.706 7.706 0 1 1 0-11.744" class="cls-2" transform="translate(112.335 -17.029)"/>
            <path id="Line_162" d="M0 0L8.675 0" class="cls-2" transform="translate(128.24 21.091)"/>
            <path id="Line_163" d="M0 0L8.675 0" class="cls-2" transform="translate(128.24 24.281)"/>
            <path id="Path_13097" d="M26.39 47.192H3.563A2.812 2.812 0 0 1 .75 44.38V3.562A2.812 2.812 0 0 1 3.563.75h22.582a2.812 2.812 0 0 1 2.812 2.812v25.482" class="cls-2" transform="translate(121.411 -.399)"/>
            <path id="Path_13098" d="M30.642 89.189a1.783 1.783 0 1 0-1.783 1.783 1.783 1.783 0 0 0 1.783-1.783" class="cls-3" transform="translate(107.406 -46.5)"/>
            <path id="Line_164" d="M0 0L5.59 0" class="cls-2" transform="translate(133.469 3.163)"/>
            <path id="Line_165" d="M0 12.718L9.751 0" class="cls-2" transform="translate(159.904 9.968)"/>
            <path id="Path_13099" d="M78.826 20.3a2.262 2.262 0 0 1 2.261 2.261v1.566a2.261 2.261 0 1 1-4.523 0v-1.568a2.261 2.261 0 0 1 2.262-2.259z" class="cls-2" transform="translate(81.078 -10.799)"/>
            <path id="Path_13100" d="M99.662 35.463a2.262 2.262 0 0 1 2.261 2.262v1.566a2.261 2.261 0 1 1-4.523 0v-1.566a2.262 2.262 0 0 1 2.262-2.262z" class="cls-2" transform="translate(69.993 -18.866)"/>
            <path id="Path_13101" d="M97.683 16.291h4.26v4.335" class="cls-2" transform="translate(69.843 -8.667)"/>
            <path id="Path_13102" d="M6.757 25.018a16.351 16.351 0 0 1 7.543-5.563l6.317-2.268H6.776z" class="cls-3" transform="translate(118.215 -9.144)"/>
            <path id="Line_166" d="M0 0L21.06 0" class="cls-2" transform="translate(125.631 38.683)"/>
            <path id="Line_167" d="M0 0L21.06 0" class="cls-2" transform="translate(125.631 5.961)"/>
            <path id="Rectangle_1799" fill="none" d="M0 0H54.208V57.007H0z" transform="translate(121.81)"/>
        </g>
    </g>
</svg>
